<svg xmlns="http://www.w3.org/2000/svg" xmlns:xlink="http://www.w3.org/1999/xlink" width="199" height="92" viewBox="0 0 199 92">
  <defs>
    <clipPath id="clip-path">
      <rect id="Rectangle_64" data-name="Rectangle 64" width="199" height="92" transform="translate(518 104)" fill="#fff" stroke="#707070" stroke-width="1"/>
    </clipPath>
    <filter id="Ellipse_39" x="-32.591" y="-0.065" width="125.183" height="125.183" filterUnits="userSpaceOnUse">
      <feOffset dy="3" input="SourceAlpha"/>
      <feGaussianBlur stdDeviation="3" result="blur"/>
      <feFlood flood-opacity="0.161"/>
      <feComposite operator="in" in2="blur"/>
      <feComposite in="SourceGraphic"/>
    </filter>
  </defs>
  <g id="Mask_Group_6" data-name="Mask Group 6" transform="translate(-518 -104)" clip-path="url(#clip-path)">
    <g id="Group_42" data-name="Group 42">
      <g id="Group_41" data-name="Group 41" transform="translate(428.409 -23.118)">
        <g transform="matrix(1, 0, 0, 1, 89.59, 127.12)" filter="url(#Ellipse_39)">
          <circle id="Ellipse_39-2" data-name="Ellipse 39" cx="53.591" cy="53.591" r="53.591" transform="translate(-23.59 5.94)" fill="#222" opacity="0"/>
        </g>
        <path id="Path_22" data-name="Path 22" d="M2110.556,3785.645h7.918l-3.917-53.714Z" transform="translate(-1994.924 -3599)" fill="#222" stroke="#222223" stroke-width="1"/>
      </g>
      <text id="urs_minutes" data-name="urs &amp; minutes" transform="translate(557 170)" fill="#222" font-size="20" font-family="NunitoSans-Bold, Nunito Sans" font-weight="700"><tspan x="0" y="0">URS &amp; MINUTES</tspan></text>
      <path id="Path_27" data-name="Path 27" d="M2110.557,3760.818h6.64l-3.285-28.888Z" transform="translate(4258.858 2363.613) rotate(150)" fill="#222" stroke="#222223" stroke-width="1"/>
      <g id="Ellipse_41" data-name="Ellipse 41" transform="translate(543.5 159)" fill="#fff" stroke="#707070" stroke-width="1">
        <circle cx="4.5" cy="4.5" r="4.5" stroke="none"/>
        <circle cx="4.5" cy="4.5" r="4" fill="none"/>
      </g>
      <text id="H" transform="translate(524 170)" fill="#222" font-size="20" font-family="NunitoSans-Bold, Nunito Sans" font-weight="700"><tspan x="0" y="0">H</tspan></text>
      <g id="Ellipse_42" data-name="Ellipse 42" transform="translate(540 155)" fill="#fff" stroke="#222" stroke-width="2.5">
        <circle cx="8" cy="8" r="8" stroke="none"/>
        <circle cx="8" cy="8" r="6.75" fill="none"/>
      </g>
    </g>
  </g>
</svg>
